<svg width="122" height="59" viewBox="0 0 122 59" fill="none" xmlns="http://www.w3.org/2000/svg">
<path d="M6.456 33.2V50H2.856V33.2H6.456ZM12.792 48.968L13.368 50H6.384V48.968H12.792ZM11.904 41.216V42.224H6.384V41.216H11.904ZM13.08 33.2V34.232H6.384V33.2H13.08ZM14.544 45.08L13.44 50H8.736L9.6 48.968C10.4 48.968 11.104 48.816 11.712 48.512C12.32 48.192 12.84 47.744 13.272 47.168C13.704 46.576 14.048 45.88 14.304 45.08H14.544ZM11.904 42.176V44.48H11.664V44.288C11.664 43.696 11.472 43.208 11.088 42.824C10.704 42.44 10.216 42.24 9.624 42.224V42.176H11.904ZM11.904 38.96V41.264H9.624V41.216C10.216 41.2 10.704 41 11.088 40.616C11.472 40.216 11.664 39.72 11.664 39.128V38.96H11.904ZM13.08 34.16V36.968H12.84V36.68C12.84 35.944 12.616 35.352 12.168 34.904C11.736 34.456 11.144 34.224 10.392 34.208V34.16H13.08ZM13.08 32.768V33.464L10.152 33.2C10.504 33.2 10.872 33.176 11.256 33.128C11.656 33.08 12.024 33.024 12.36 32.96C12.696 32.896 12.936 32.832 13.08 32.768ZM2.928 48.248V50H1.008V49.76C1.008 49.76 1.056 49.76 1.152 49.76C1.264 49.76 1.32 49.76 1.32 49.76C1.736 49.76 2.088 49.616 2.376 49.328C2.68 49.024 2.84 48.664 2.856 48.248H2.928ZM2.928 34.952H2.856C2.84 34.536 2.68 34.184 2.376 33.896C2.088 33.592 1.736 33.44 1.32 33.44C1.32 33.44 1.264 33.44 1.152 33.44C1.056 33.44 1.008 33.44 1.008 33.44V33.2H2.928V34.952ZM17.3481 35.264L31.4361 47.648L31.6761 50.312L17.6121 37.928L17.3481 35.264ZM17.4441 48.536V50H15.6681V49.76C15.6681 49.76 15.7321 49.76 15.8601 49.76C15.9881 49.76 16.0521 49.76 16.0521 49.76C16.4201 49.76 16.7321 49.648 16.9881 49.424C17.2441 49.184 17.3721 48.888 17.3721 48.536H17.4441ZM20.6601 48.536C20.6761 48.888 20.8121 49.184 21.0681 49.424C21.3241 49.648 21.6281 49.76 21.9801 49.76C21.9801 49.76 22.0441 49.76 22.1721 49.76C22.3161 49.76 22.3881 49.76 22.3881 49.76V50H20.6121V48.536H20.6601ZM17.3481 35.264L20.6601 38.864V50H17.3721V38C17.3721 37.184 17.3321 36.528 17.2521 36.032C17.1721 35.52 17.1321 35.264 17.1321 35.264H17.3481ZM31.6521 35.6V47.504C31.6521 48.064 31.6681 48.56 31.7001 48.992C31.7481 49.408 31.7881 49.736 31.8201 49.976C31.8681 50.2 31.8921 50.312 31.8921 50.312H31.6761L28.3641 46.496V35.6H31.6521ZM31.5801 37.064V35.6H33.3801V35.84C33.3801 35.84 33.3081 35.84 33.1641 35.84C33.0361 35.84 32.9721 35.84 32.9721 35.84C32.6201 35.84 32.3081 35.96 32.0361 36.2C31.7801 36.424 31.6521 36.712 31.6521 37.064H31.5801ZM28.3641 37.064C28.3481 36.712 28.2121 36.424 27.9561 36.2C27.7161 35.96 27.4121 35.84 27.0441 35.84C27.0441 35.84 26.9721 35.84 26.8281 35.84C26.7001 35.84 26.6361 35.84 26.6361 35.84V35.6H28.4121V37.064H28.3641ZM39.5792 35.288C39.8992 35.288 40.2832 35.304 40.7312 35.336C41.1952 35.368 41.6512 35.408 42.0992 35.456C42.5472 35.488 42.9392 35.536 43.2752 35.6C43.6272 35.648 43.8672 35.696 43.9952 35.744L43.6832 38.672H43.4672C43.4672 37.936 43.2112 37.352 42.6992 36.92C42.1872 36.488 41.4512 36.272 40.4912 36.272C39.7232 36.272 39.0992 36.44 38.6192 36.776C38.1552 37.112 37.9072 37.56 37.8752 38.12C37.8432 38.408 37.8912 38.672 38.0192 38.912C38.1632 39.136 38.3552 39.336 38.5952 39.512C38.8512 39.688 39.1312 39.864 39.4352 40.04L43.2032 42.368C43.8432 42.688 44.3472 43.152 44.7152 43.76C45.0832 44.368 45.2432 45.104 45.1952 45.968C45.1472 46.864 44.8832 47.64 44.4032 48.296C43.9392 48.952 43.2912 49.456 42.4592 49.808C41.6432 50.144 40.6752 50.312 39.5552 50.312C38.8672 50.312 38.2272 50.256 37.6352 50.144C37.0432 50.032 36.5312 49.88 36.0992 49.688C35.6832 49.496 35.3632 49.28 35.1392 49.04C35.0112 48.72 34.9552 48.336 34.9712 47.888C34.9872 47.424 35.0592 46.968 35.1872 46.52C35.3152 46.056 35.4752 45.672 35.6672 45.368H35.8592C35.8112 46.088 35.9392 46.752 36.2432 47.36C36.5632 47.968 37.0272 48.456 37.6352 48.824C38.2432 49.176 38.9712 49.352 39.8192 49.352C40.7472 49.352 41.4432 49.136 41.9072 48.704C42.3712 48.272 42.6032 47.768 42.6032 47.192C42.6032 46.76 42.4592 46.376 42.1712 46.04C41.8992 45.688 41.4432 45.344 40.8032 45.008L37.3952 42.848C36.5952 42.432 36.0112 41.88 35.6432 41.192C35.2912 40.504 35.1632 39.752 35.2592 38.936C35.3392 38.168 35.5632 37.512 35.9312 36.968C36.3152 36.424 36.8192 36.008 37.4432 35.72C38.0672 35.432 38.7792 35.288 39.5792 35.288ZM43.9952 35.504L43.9712 35.936H41.4032V35.504H43.9952ZM51.9581 35.6V50H48.5021V35.6H51.9581ZM57.5741 49.04L58.1261 50H51.9101V49.04H57.5741ZM56.7581 42.392V43.352H51.9101V42.392H56.7581ZM57.8381 35.6V36.56H51.9101V35.6H57.8381ZM59.1101 45.584L58.1981 50H54.0461L54.7901 49.04C55.4781 49.04 56.0861 48.904 56.6141 48.632C57.1581 48.344 57.6221 47.944 58.0061 47.432C58.3901 46.904 58.6861 46.288 58.8941 45.584H59.1101ZM56.7581 43.304V45.416H56.5181V45.224C56.5181 44.696 56.3501 44.256 56.0141 43.904C55.6941 43.552 55.2541 43.368 54.6941 43.352V43.304H56.7581ZM56.7581 40.328V42.44H54.6941V42.392C55.2541 42.376 55.6941 42.192 56.0141 41.84C56.3501 41.472 56.5181 41.024 56.5181 40.496V40.328H56.7581ZM57.8381 36.512V39.056H57.5981V38.84C57.5981 38.136 57.4061 37.584 57.0221 37.184C56.6541 36.784 56.1181 36.576 55.4141 36.56V36.512H57.8381ZM57.8381 35.24V35.816L55.3181 35.6C55.7821 35.6 56.2701 35.56 56.7821 35.48C57.2941 35.384 57.6461 35.304 57.8381 35.24ZM48.5501 48.488L48.6701 50H46.8941V49.76C46.8941 49.76 46.9421 49.76 47.0381 49.76C47.1341 49.76 47.1901 49.76 47.2061 49.76C47.5581 49.76 47.8541 49.64 48.0941 49.4C48.3501 49.144 48.4861 48.84 48.5021 48.488H48.5501ZM48.5501 37.112H48.5021C48.4861 36.744 48.3501 36.44 48.0941 36.2C47.8541 35.96 47.5581 35.84 47.2061 35.84C47.1901 35.84 47.1341 35.84 47.0381 35.84C46.9421 35.84 46.8941 35.84 46.8941 35.84V35.6H48.6701L48.5501 37.112ZM76.545 35.288L76.737 37.76L70.281 48.008C70.281 48.008 70.209 48.144 70.065 48.416C69.921 48.672 69.777 48.984 69.633 49.352C69.505 49.72 69.433 50.088 69.417 50.456H69.201L68.265 48.488L76.545 35.288ZM61.785 48.464V50H59.433V49.76C59.433 49.76 59.489 49.76 59.601 49.76C59.697 49.76 59.745 49.76 59.745 49.76C60.145 49.76 60.489 49.648 60.777 49.424C61.081 49.2 61.265 48.88 61.329 48.464H61.785ZM62.817 48.8C62.801 48.976 62.857 49.184 62.985 49.424C63.113 49.648 63.337 49.76 63.657 49.76H63.993V50H62.553L62.697 48.8H62.817ZM63.201 35.288H63.393L64.209 37.592L62.697 50H61.137L63.201 35.288ZM63.393 35.288L70.497 45.92L69.201 50.456L62.817 40.784L63.393 35.288ZM76.761 35.288L78.873 50H75.201L74.025 41.24L76.545 35.288H76.761ZM78.201 48.464H78.657C78.737 48.88 78.921 49.2 79.209 49.424C79.513 49.648 79.849 49.76 80.217 49.76C80.217 49.76 80.273 49.76 80.385 49.76C80.497 49.76 80.553 49.76 80.553 49.76V50H78.201V48.464ZM75.033 48.8H75.177L75.321 50H73.881V49.76H74.217C74.569 49.76 74.801 49.648 74.913 49.424C75.025 49.184 75.065 48.976 75.033 48.8ZM83.6798 35.6H87.6638C88.2878 35.6 88.9198 35.648 89.5598 35.744C90.1998 35.84 90.7838 36.016 91.3118 36.272C91.8398 36.528 92.2638 36.888 92.5838 37.352C92.9038 37.816 93.0638 38.424 93.0638 39.176C93.0638 39.784 92.9358 40.304 92.6797 40.736C92.4238 41.168 92.0958 41.504 91.6958 41.744C91.2958 41.984 90.8718 42.12 90.4238 42.152C91.1278 42.2 91.7598 42.384 92.3198 42.704C92.8798 43.024 93.3278 43.456 93.6638 44C94.0158 44.528 94.1918 45.16 94.1918 45.896C94.1918 46.648 94.0318 47.288 93.7118 47.816C93.3918 48.328 92.9518 48.752 92.3918 49.088C91.8318 49.408 91.1838 49.64 90.4478 49.784C89.7278 49.928 88.9678 50 88.1678 50H86.0078C86.0078 50 86.0078 49.92 86.0078 49.76C86.0078 49.6 86.0078 49.44 86.0078 49.28C86.0078 49.12 86.0078 49.04 86.0078 49.04H87.1598C87.7358 49.04 88.2558 48.936 88.7198 48.728C89.1998 48.504 89.5838 48.144 89.8718 47.648C90.1598 47.152 90.3038 46.496 90.3038 45.68C90.3038 45.12 90.2158 44.632 90.0398 44.216C89.8798 43.784 89.6478 43.44 89.3438 43.184C89.0398 42.912 88.6798 42.712 88.2638 42.584C87.8478 42.456 87.3918 42.392 86.8958 42.392V42.176C87.2478 42.176 87.5838 42.128 87.9038 42.032C88.2238 41.92 88.4958 41.76 88.7198 41.552C88.9598 41.328 89.1438 41.04 89.2718 40.688C89.4158 40.336 89.4878 39.912 89.4878 39.416C89.4878 38.344 89.2398 37.6 88.7438 37.184C88.2478 36.752 87.6238 36.536 86.8718 36.536H83.8958C83.8958 36.52 83.8718 36.44 83.8238 36.296C83.7918 36.136 83.7598 35.984 83.7278 35.84C83.6958 35.68 83.6798 35.6 83.6798 35.6ZM86.1758 35.6V50H82.7678V35.6H86.1758ZM82.8398 48.488V50H81.2078V49.76C81.2238 49.76 81.2638 49.76 81.3278 49.76C81.4078 49.76 81.4558 49.76 81.4718 49.76C81.8558 49.76 82.1678 49.64 82.4078 49.4C82.6638 49.144 82.7838 48.84 82.7678 48.488H82.8398ZM82.8398 37.112H82.7678C82.7838 36.728 82.6638 36.424 82.4078 36.2C82.1678 35.96 81.8558 35.84 81.4718 35.84C81.4558 35.84 81.4078 35.84 81.3278 35.84C81.2638 35.84 81.2238 35.84 81.2078 35.84V35.6H82.8398V37.112ZM100.708 35.6V50H97.2521V35.6H100.708ZM106.3 49.04L106.876 50H100.66V49.04H106.3ZM107.884 45.584L106.948 50H102.796L103.54 49.04C104.228 49.04 104.836 48.904 105.364 48.632C105.908 48.344 106.372 47.944 106.756 47.432C107.14 46.904 107.436 46.288 107.644 45.584H107.884ZM97.3001 48.488L97.4201 50H95.6441V49.76C95.6441 49.76 95.6921 49.76 95.7881 49.76C95.8841 49.76 95.9401 49.76 95.9561 49.76C96.3081 49.76 96.6041 49.64 96.8441 49.4C97.1001 49.144 97.2361 48.84 97.2521 48.488H97.3001ZM100.66 37.112V35.6H102.316V35.84C102.3 35.84 102.244 35.84 102.148 35.84C102.068 35.84 102.028 35.84 102.028 35.84C101.676 35.84 101.372 35.96 101.116 36.2C100.86 36.44 100.724 36.744 100.708 37.112H100.66ZM97.3001 37.112H97.2521C97.2361 36.744 97.1001 36.44 96.8441 36.2C96.5881 35.96 96.2841 35.84 95.9321 35.84C95.9161 35.84 95.8601 35.84 95.7641 35.84C95.6841 35.84 95.6441 35.84 95.6441 35.84V35.6H97.3001V37.112ZM113.646 35.6V50H110.19V35.6H113.646ZM119.262 49.04L119.814 50H113.598V49.04H119.262ZM118.446 42.392V43.352H113.598V42.392H118.446ZM119.526 35.6V36.56H113.598V35.6H119.526ZM120.798 45.584L119.886 50H115.734L116.478 49.04C117.166 49.04 117.774 48.904 118.302 48.632C118.846 48.344 119.31 47.944 119.694 47.432C120.078 46.904 120.374 46.288 120.582 45.584H120.798ZM118.446 43.304V45.416H118.206V45.224C118.206 44.696 118.038 44.256 117.702 43.904C117.382 43.552 116.942 43.368 116.382 43.352V43.304H118.446ZM118.446 40.328V42.44H116.382V42.392C116.942 42.376 117.382 42.192 117.702 41.84C118.038 41.472 118.206 41.024 118.206 40.496V40.328H118.446ZM119.526 36.512V39.056H119.286V38.84C119.286 38.136 119.094 37.584 118.71 37.184C118.342 36.784 117.806 36.576 117.102 36.56V36.512H119.526ZM119.526 35.24V35.816L117.006 35.6C117.47 35.6 117.958 35.56 118.47 35.48C118.982 35.384 119.334 35.304 119.526 35.24ZM110.238 48.488L110.358 50H108.582V49.76C108.582 49.76 108.63 49.76 108.726 49.76C108.822 49.76 108.878 49.76 108.894 49.76C109.246 49.76 109.542 49.64 109.782 49.4C110.038 49.144 110.174 48.84 110.19 48.488H110.238ZM110.238 37.112H110.19C110.174 36.744 110.038 36.44 109.782 36.2C109.542 35.96 109.246 35.84 108.894 35.84C108.878 35.84 108.822 35.84 108.726 35.84C108.63 35.84 108.582 35.84 108.582 35.84V35.6H110.358L110.238 37.112Z" fill="black"/>
<path d="M60.5 0L64.2295 8.36679L73.3393 9.32827L66.5345 15.4607L68.4351 24.4217L60.5 19.845L52.5649 24.4217L54.4655 15.4607L47.6607 9.32827L56.7705 8.36679L60.5 0Z" fill="black"/>
<path d="M60.8553 7.62281L62.4597 11.222L62.5771 11.4854L62.8639 11.5157L66.7827 11.9293L63.8554 14.5674L63.6412 14.7604L63.701 15.0425L64.5186 18.8974L61.1051 16.9286L60.8553 16.7845L60.6055 16.9286L57.192 18.8974L58.0096 15.0425L58.0694 14.7604L57.8552 14.5674L54.9279 11.9293L58.8467 11.5157L59.1335 11.4854L59.2509 11.222L60.8553 7.62281Z" stroke="white"/>
</svg>
